# xmcd CD database file
#
# Track frame offsets:
#	150
#	17687
#	36982
#	61550
#
# Disc length: 1053 seconds
#
# Revision: 17
# Processed by: cddbd v1.5.2PL0 Copyright (c) Steve Scherf et al.
# Submitted via: CDex 1.70beta2
#
DISCID=26041b04
DTITLE=Crash Test Dummies - Afternoons and Coffeespoons
DYEAR=1994
DGENRE=Blues
TTITLE0=Afternoons and Coffeespoons
TTITLE1=Mmm Mmm Mmm Mmm (live)
TTITLE2=God Shuffled His Feet (live)
TTITLE3=In The Days Of The Caveman (live)
EXTD=YEAR: 1994
EXTT0=
EXTT1=
EXTT2=
EXTT3=
PLAYORDER=
